<svg width="312" height="39" xmlns="http://www.w3.org/2000/svg">
  <g fill-rule="nonzero" fill="none">
    <path fill="#00005A" d="M205.512 6.365v3.632h5.31v2.42h-5.31v3.616h5.494v2.425h-8.102V3.878h8.102V6.29h-5.494zM289.356 6.365v3.632h5.315v2.42h-5.315v3.616h5.494v2.425h-8.097V3.878h8.097V6.29h-5.494zM55.706 14.896h-5.207l-1.666 3.545h-2.75l6.978-14.996h.075l6.977 14.996h-2.82l-1.587-3.545zm-1.012-2.312l-1.592-3.94-1.628 3.94h3.22zM71.064 18.44l-4.773-6.147v6.148h-2.604V3.86h5.207c2.5 0 4.486 1.808 4.486 4.266s-1.807 3.832-4.015 4.086l4.998 6.22-3.299.008zM66.291 6.29v3.749h2.532a1.933 1.933 0 0 0 1.954-1.879 1.87 1.87 0 0 0-1.883-1.883l-2.603.013zM174.245 18.44l-4.77-6.147v6.148h-2.603V3.86h5.207c2.5 0 4.482 1.808 4.482 4.266s-1.808 3.832-4.015 4.086l4.998 6.22-3.299.008zm-4.77-12.15v3.749h2.53a1.933 1.933 0 0 0 1.953-1.879 1.87 1.87 0 0 0-1.879-1.883l-2.603.013zM88.268 14.163c0 2.42-1.954 4.265-4.699 4.265h-4.707V3.85h4.707c2.5 0 4.408 1.808 4.408 4.265a3.54 3.54 0 0 1-1.371 2.966 3.612 3.612 0 0 1 1.662 3.083zM81.362 6.29v3.582h2.207a1.7 1.7 0 0 0 1.825-1.774 1.75 1.75 0 0 0-1.808-1.808h-2.224zm4.194 7.873a1.962 1.962 0 0 0-1.987-1.883h-2.207v3.69h2.207a1.879 1.879 0 0 0 1.987-1.807zM96.083 6.365v3.632h5.31v2.42h-5.31v3.616h5.494v2.425h-8.102V3.878h8.102V6.29h-5.494zM109.733 6.29h-3.724V3.87h10.052v2.42h-3.724v12.15h-2.604zM136.63 6.327v3.616h5.415v2.425h-5.415v6.073h-2.603V3.86h8.168V6.29zM146.628 11.135a7.81 7.81 0 0 1 15.616 0 7.81 7.81 0 0 1-15.616 0zm1.878-9.544a1.52 1.52 0 0 1 3.037 0 1.52 1.52 0 0 1-3.037 0zm11.097 9.544a5.17 5.17 0 1 0-10.339 0 5.17 5.17 0 0 0 10.34 0zm-2.24-9.581a1.52 1.52 0 0 1 3.036 0 1.516 1.516 0 0 1-1.516 1.483 1.495 1.495 0 0 1-1.53-1.483h.01zM197.16 3.545V18.44h-2.604V8.968l-4.92 4.303-4.952-4.34v9.51h-2.603V3.545h.037l7.498 6.398 7.436-6.398zM228.272 11.172c0 4.266-3.29 7.269-7.773 7.269h-3.89V3.86h3.903c4.461.009 7.76 3.008 7.76 7.311zm-2.636 0c0-2.89-2.062-4.845-5.137-4.845h-1.308v9.656h1.3c3.074 0 5.136-1.953 5.136-4.811h.009zM240.74 16.017v2.424h-8.065V3.86h2.604v12.156zM245.351 3.87h2.604v14.58h-2.604zM265.58 3.87v14.875h-.038l-9.256-9.164v8.86h-2.604V3.578h.038l9.256 9.164V3.87zM312 3.87v14.875h-.037l-9.256-9.164v8.86h-2.604V3.578h.038l9.293 9.164V3.87zM281.346 18.44h-3.583c-4.52 0-7.773-3.036-7.773-7.268 0-4.232 3.291-7.302 7.773-7.302h2.5v2.42h-2.5c-3.07 0-5.132 1.954-5.132 4.845 0 2.89 2.083 4.848 5.132 4.848h.98v-3.615h-2.15V9.943h4.774l-.021 8.498zM120.168 15.975h4.582a1.9 1.9 0 0 0 1.883-1.92 1.87 1.87 0 0 0-1.879-1.887l-.65-.034c-2.64 0-4.373-1.379-4.373-4.094 0-2.716 2.024-4.166 4.482-4.166h4.194v2.428h-4.19c-1.05 0-1.879.654-1.879 1.742 0 1.087.833 1.59 1.879 1.59l.65.038c2.749 0 4.373 1.488 4.373 4.387 0 2.716-2.024 4.386-4.482 4.386h-4.582l-.008-2.47zM65.924 27.668l-4.274 9.21h-.033l-1.895-4.07-1.892 4.07-4.294-9.21h1.45l2.82 6.14 1.178-2.533-1.666-3.607h1.466l.925 2.037.929-2.037h1.429L60.4 31.242l1.178 2.57 2.82-6.14zM69.148 28.88v2.607h3.462v1.288h-3.462v2.603h3.533v1.279h-4.89v-8.99h4.89v1.284h-3.533zM82.845 32.166c0 2.641-2.033 4.5-4.82 4.5h-2.25v-8.998h2.25c2.787 0 4.82 1.857 4.82 4.498zm-1.354 0c0-1.928-1.396-3.249-3.429-3.249h-.928v6.461h.928c2.033.03 3.429-1.283 3.429-3.212zM85.331 27.668h1.358v8.989h-1.358zM104.735 27.668v8.989h-1.358v-3.85h-4.39v3.85h-1.359v-8.99h1.358v3.858h4.39v-3.857zM118.743 30.238a2.624 2.624 0 0 1-2.711 2.607h-1.48v3.812h-1.357v-8.99h2.82a2.624 2.624 0 0 1 2.728 2.57zm-1.32 0a1.325 1.325 0 0 0-1.358-1.32h-1.512v2.64h1.5a1.304 1.304 0 0 0 1.37-1.32zM121.088 33.878v-6.21h1.38v6.21a1.72 1.72 0 0 0 1.82 1.717 1.741 1.741 0 0 0 1.82-1.717v-6.21h1.358v6.21c0 1.717-1.216 3-3.145 3-2.02 0-3.233-1.32-3.233-3zM136.072 34.058c0 1.607-1.179 2.607-2.82 2.607h-2.87v-8.997h2.857a2.558 2.558 0 0 1 2.679 2.532 2.4 2.4 0 0 1-.93 1.929 2.429 2.429 0 0 1 1.084 1.929zm-4.32-5.14v2.532h1.5a1.266 1.266 0 1 0 0-2.533h-1.5zm2.962 5.14a1.395 1.395 0 0 0-1.462-1.32h-1.5v2.64h1.5a1.42 1.42 0 0 0 1.462-1.32zM143.666 35.378v1.279h-4.786v-8.99h1.358v7.74h3.428zM146.048 27.668h1.354v8.989h-1.354zM149.88 32.15c0-2.633 2.034-4.482 4.82-4.482h1.354v1.278H154.7c-2.082 0-3.428 1.283-3.428 3.237 0 1.954 1.391 3.2 3.428 3.2h1.354v1.274H154.7c-2.786-.03-4.82-1.879-4.82-4.507zM165.372 28.88v2.607h3.466v1.288h-3.466v2.603h3.537v1.279h-4.878v-8.99h4.895v1.284h-3.554zM181.122 27.493v9.164h-1.353v-6.415l-3.179 2.64-3.145-2.64v6.415h-1.353v-9.202h.033l4.499 3.75zM190.016 30.2a2.624 2.624 0 0 1-2.716 2.608h-1.516v3.849h-1.354v-8.99h2.82c1.55 0 2.766 1.075 2.766 2.533zm-1.358 0a1.325 1.325 0 0 0-1.358-1.32h-1.516v2.645h1.5a1.287 1.287 0 0 0 1.374-1.325zM197.03 35.378v1.279h-4.765v-8.99h1.354v7.74h3.412zM198.464 32.166a4.824 4.824 0 1 1 4.815 4.716 4.757 4.757 0 0 1-4.815-4.716zm8.285 0a3.466 3.466 0 1 0-3.47 3.429 3.374 3.374 0 0 0 3.47-3.429zM213.276 32.308v4.349h-1.358v-4.349l-2.749-4.64h1.5l1.928 3.249 1.929-3.25h1.5zM227.077 27.493v9.164h-1.358v-6.415l-3.174 2.64-3.179-2.64v6.415h-1.358v-9.202h.038l4.499 3.75zM231.8 28.88v2.607h3.466v1.288h-3.465v2.603h3.553v1.279h-4.907v-8.99h4.907v1.284h-3.537zM245.622 27.668v9.164h-.038l-5.71-6.165v5.99h-1.359v-9.202h.038l5.71 6.14v-5.927zM250.179 28.95h-2.358v-1.282h6.036v1.283h-2.32v7.706h-1.358zM46.77 35.378h2.717a1.358 1.358 0 1 0 0-2.712h-.333c-1.854 0-2.712-1.037-2.712-2.5 0-1.461.962-2.498 2.712-2.498h2.536v1.283h-2.57a1.22 1.22 0 1 0 0 2.428h.321c1.891 0 2.75 1.146 2.75 2.645 0 1.5-1 2.641-2.75 2.641h-2.678l.008-1.287zM89.676 35.378h2.716a1.358 1.358 0 1 0 0-2.712h-.333c-1.858 0-2.716-1.037-2.716-2.5 0-1.461.966-2.498 2.716-2.498h2.57v1.283h-2.57a1.22 1.22 0 1 0 0 2.428h.32c1.892 0 2.75 1.146 2.75 2.645 0 1.5-.987 2.633-2.737 2.633h-2.678v-1.279h-.038zM260.943 35.378h2.712a1.358 1.358 0 1 0 0-2.712h-.321c-1.858 0-2.712-1.037-2.712-2.5 0-1.461.962-2.498 2.712-2.498h2.57v1.283h-2.57a1.22 1.22 0 1 0 0 2.428h.32c1.892 0 2.75 1.146 2.75 2.645 0 1.5-1 2.641-2.75 2.641h-2.678l-.033-1.287zM270.511 28.88v2.607h3.462v1.288h-3.462v2.603h3.532v1.279h-4.89v-8.99h4.89v1.284h-3.532zM281.566 36.628l-3.14-3.945v3.974h-1.358v-8.99h2.961a2.616 2.616 0 0 1 2.716 2.562c0 1.458-1.179 2.454-2.678 2.525l3.14 3.903h-1.64v-.03zm-3.14-7.682v2.6h1.603a1.3 1.3 0 1 0 0-2.6h-1.603zM292.551 27.668l-4.295 9.139h-.037l-4.274-9.14h1.466l2.82 6.095 2.82-6.094zM294.467 27.668h1.358v8.989h-1.358zM298.312 32.15c0-2.633 2.037-4.482 4.82-4.482h1.37v1.278h-1.358c-2.083 0-3.428 1.283-3.428 3.237 0 1.954 1.395 3.2 3.428 3.2h1.358v1.274h-1.358c-2.808-.03-4.832-1.879-4.832-4.507zM308.405 28.88v2.607h3.466v1.288h-3.466v2.603h3.537v1.279h-4.895v-8.99h4.895v1.284h-3.537z"/>
    <path d="M13.255 11.963c-7.093 0-12.843 5.75-12.843 12.843s5.75 12.842 12.843 12.842c7.092 0 12.842-5.75 12.842-12.842a12.842 12.842 0 0 0-12.842-12.843zm0 19.704a6.86 6.86 0 1 1 6.86-6.861 6.86 6.86 0 0 1-6.86 6.852v.009z" fill="#7EC13D"/>
    <path d="M13.255 0v6.003a18.807 18.807 0 0 1 16.083 28.571l4.999 3.308A24.806 24.806 0 0 0 13.255 0z" fill="#7EC13D"/>
  </g>
</svg>
