<?xml version="1.0" encoding="UTF-8"?>
<svg width="23px" height="18px" viewBox="0 0 23 18" version="1.1" xmlns="http://www.w3.org/2000/svg" xmlns:xlink="http://www.w3.org/1999/xlink">
    <!-- Generator: Sketch 59 (86127) - https://sketch.com -->
    <title>sidebar</title>
    <desc>Created with Sketch.</desc>
    <g id="Landing-Pages" stroke="none" stroke-width="1" fill="none" fill-rule="evenodd">
        <g id="Landing-2" transform="translate(-371.000000, -2863.000000)" fill="#5454D4" fill-rule="nonzero">
            <g id="Content-2" transform="translate(0.000000, 2432.000000)">
                <g id="Content" transform="translate(247.000000, 86.000000)">
                    <g id="List" transform="translate(0.000000, 200.000000)">
                        <g id="1-copy-9" transform="translate(93.000000, 114.000000)">
                            <g id="Icon" transform="translate(15.000000, 12.000000)">
                                <g id="sidebar" transform="translate(16.000000, 19.000000)">
                                    <path d="M12,18 L1.44,18 C0.64470996,18 0,17.3637731 0,16.5789474 L0,1.42105263 C0,0.636226934 0.64470996,0 1.44,0 L12,0 L12,0.947368421 L1.44,0.947368421 C1.17490332,0.947368421 0.96,1.15944407 0.96,1.42105263 L0.96,16.5789474 C0.96,16.8405559 1.17490332,17.0526316 1.44,17.0526316 L12,17.0526316 L12,18 Z" id="Path"></path>
                                    <path d="M21.5789474,0 L14,0 L14,18 L21.5789474,18 C22.3637731,18 23,17.3637731 23,16.5789474 L23,1.42105263 C23,0.636226934 22.3637731,0 21.5789474,0 Z M20.1578947,13.2631579 L16.8421053,13.2631579 C16.5804967,13.2631579 16.3684211,13.0510822 16.3684211,12.7894737 C16.3684211,12.5278651 16.5804967,12.3157895 16.8421053,12.3157895 L20.1578947,12.3157895 C20.4195033,12.3157895 20.6315789,12.5278651 20.6315789,12.7894737 C20.6315789,13.0510822 20.4195033,13.2631579 20.1578947,13.2631579 Z M20.1578947,9.47368421 L16.8421053,9.47368421 C16.5804967,9.47368421 16.3684211,9.26160857 16.3684211,9 C16.3684211,8.73839143 16.5804967,8.52631579 16.8421053,8.52631579 L20.1578947,8.52631579 C20.4195033,8.52631579 20.6315789,8.73839143 20.6315789,9 C20.6315789,9.26160857 20.4195033,9.47368421 20.1578947,9.47368421 Z M20.1578947,5.68421053 L16.8421053,5.68421053 C16.5804967,5.68421053 16.3684211,5.47213488 16.3684211,5.21052632 C16.3684211,4.94891775 16.5804967,4.73684211 16.8421053,4.73684211 L20.1578947,4.73684211 C20.4195033,4.73684211 20.6315789,4.94891775 20.6315789,5.21052632 C20.6315789,5.47213488 20.4195033,5.68421053 20.1578947,5.68421053 Z" id="Shape"></path>
                                </g>
                            </g>
                        </g>
                    </g>
                </g>
            </g>
        </g>
    </g>
</svg>