<svg width="160" height="160" viewBox="0 0 160 160" fill="none" xmlns="http://www.w3.org/2000/svg">
<rect width="160" height="160" fill="#60CD18"/>
<path d="M0 24.7995L5.53222 20.6283C9.40317 24.0337 12.1128 24.5225 14.3709 24.5225C16.9515 24.5225 19.3708 23.9685 19.6934 22.4858C19.9354 21.3126 18.9676 20.3676 16.758 19.8462C14.258 19.2759 12.1612 18.787 9.8064 18.1679C3.43546 16.4733 1.62903 12.7419 1.62903 9.38537C1.62903 4.75786 5.90319 1.27273e-07 13.6935 1.27273e-07C21.6934 1.27273e-07 26.3708 4.62751 26.3708 4.62751L21.145 8.57066C18.6773 6.41985 15.4999 6.0125 13.7419 6.0125C11.9677 6.0125 10.1128 6.51761 9.82252 7.80484C9.54833 9.05949 10.6935 10.0208 12.6773 10.5748C14.9193 11.1777 16.9838 11.7154 20.1289 12.6279C24.8224 13.9803 28.0482 16.0333 28.0482 20.8075C28.0482 27.3577 22.2902 30.7469 14.5483 30.7469C6.82254 30.7469 1.58064 26.6896 0 24.7995Z" transform="translate(31 64.3223)" fill="white"/>
<path d="M1.33669e-08 0H1.80645V43H1.33669e-08V0Z" transform="translate(61.3711 58)" fill="white"/>
<path d="M1.33669e-08 0H1.80645V43H1.33669e-08V0Z" transform="translate(94 59)" fill="white"/>
<path d="M2.00771e-06 29.427V2.29395e-07H23.3063V6.72944H8.17737V11.4221H18.887V17.9072H8.17737V22.6487H23.7257V29.427H2.00771e-06" transform="translate(67.4023 64.7783)" fill="white"/>
<path d="M6.12203e-07 29.4108V-1.24234e-07H17.1128C22.0321 -1.24234e-07 26.0159 2.90034 26.0159 7.44638C26.0159 11.0474 23.8224 13.1493 21.8386 13.9477C21.8386 13.9477 21.7095 13.9803 21.4999 13.9966C21.7095 14.0129 21.8386 14.0455 21.8386 14.0455C25.2902 15.1535 27.774 17.679 27.774 21.4919C27.774 26.3638 23.7095 29.4108 18.7096 29.4108H6.12203e-07V29.4108ZM8.22575 22.8768H16.2096C17.6289 22.8768 18.7741 21.72 18.7741 20.1883C18.7741 18.673 17.6289 17.5161 16.2096 17.5161H8.22575V22.8768V22.8768ZM8.22575 11.2755H14.7418C16.258 11.2755 17.4676 10.0697 17.4676 8.70102C17.4676 7.31602 16.258 6.11026 14.7418 6.11026H8.22575V11.2755Z" transform="translate(100.227 64.7944)" fill="white"/>
</svg>
