<?xml version="1.0" encoding="UTF-8"?>
<svg width="26px" height="24px" viewBox="0 0 26 24" version="1.1" xmlns="http://www.w3.org/2000/svg" xmlns:xlink="http://www.w3.org/1999/xlink">
    <!-- Generator: Sketch 59 (86127) - https://sketch.com -->
    <title>chat-content</title>
    <desc>Created with Sketch.</desc>
    <g id="Landing-Pages" stroke="none" stroke-width="1" fill="none" fill-rule="evenodd">
        <g id="Landing-2" transform="translate(-277.000000, -2975.000000)" fill="#77BF41" fill-rule="nonzero">
            <g id="Content-2" transform="translate(0.000000, 2432.000000)">
                <g id="Content" transform="translate(247.000000, 86.000000)">
                    <g id="List" transform="translate(0.000000, 200.000000)">
                        <g id="1-copy-11" transform="translate(0.000000, 228.000000)">
                            <g id="Icon" transform="translate(15.000000, 12.000000)">
                                <g id="chat-content" transform="translate(15.000000, 17.000000)">
                                    <path d="M23.173913,0 L2.82608696,0 C1.26528223,0 0,1.27917215 0,2.85711095 L0,15.4283992 C0,16.1861521 0.297747592,16.9128694 0.827741705,17.4486817 C1.35773582,17.9844939 2.07656209,18.2855101 2.82608696,18.2855101 L8.20695652,18.2855101 L12.5591304,23.7854487 C12.6663908,23.9210544 12.8288197,24 13.0005652,24 C13.1723107,24 13.3347396,23.9210544 13.442,23.7854487 L17.7930435,18.2855101 L23.173913,18.2855101 C24.7347178,18.2855101 26,17.006338 26,15.4283992 L26,2.85711095 C26,1.27917215 24.7347178,0 23.173913,0 Z M14.1916667,12 L6.60833333,12 C6.30917909,12 6.06666667,11.808122 6.06666667,11.5714286 C6.06666667,11.3347351 6.30917909,11.1428571 6.60833333,11.1428571 L14.1916667,11.1428571 C14.4908209,11.1428571 14.7333333,11.3347351 14.7333333,11.5714286 C14.7333333,11.808122 14.4908209,12 14.1916667,12 Z M20.2333333,6.85714286 L6.63333333,6.85714286 C6.32037198,6.85714286 6.06666667,6.66526489 6.06666667,6.42857143 C6.06666667,6.19187796 6.32037198,6 6.63333333,6 L20.2333333,6 C20.5462947,6 20.8,6.19187796 20.8,6.42857143 C20.8,6.66526489 20.5462947,6.85714286 20.2333333,6.85714286 Z" id="Shape"></path>
                                </g>
                            </g>
                        </g>
                    </g>
                </g>
            </g>
        </g>
    </g>
</svg>