<svg id="Lager_1" data-name="Lager 1" xmlns="http://www.w3.org/2000/svg" xmlns:xlink="http://www.w3.org/1999/xlink" viewBox="0 0 566.93 303.31"><defs><style>.cls-1{fill:none;}.cls-2{fill:#4c3e7b;}.cls-3{clip-path:url(#clip-path);}</style><clipPath id="clip-path"><rect class="cls-1" width="566.93" height="303.02"/></clipPath></defs><title>TRR_logo_lila</title><polygon class="cls-2" points="71.03 71.27 71.03 94.95 117.73 94.95 117.73 232.23 144.19 232.23 144.19 94.95 191.12 94.95 191.12 71.27 71.03 71.27"/><g class="cls-3"><path class="cls-2" d="M259.21,160.26c17.48,0,30.36-13.8,30.36-32.66S276.69,95,259.21,95H227.92v65.31Zm22.54,20,31.75,52H283.36l-15.91-26.11a46.31,46.31,0,0,0-39.53-22.18v48.29H201.46v-161h59.36C293,71.26,316,94.72,316,127.6c0,25.06-13.57,44.84-34.28,52.66"/><path class="cls-2" d="M483.32,206.74c-6.1,2.53-9.26,4-17.86,5-27.07,3-42.11-12-57.77-31.47C428.4,172.44,442,152.67,442,127.6c0-32.88-23-56.34-55.21-56.34H327.4v161h26.46V183.94a46.28,46.28,0,0,1,33,13.84s10.24,11.14,16.26,17c8.2,7.93,29.81,24.54,65.36,21.86,10.89-.82,19.93-4.07,27.43-6.44Zm-98.17-46.48H353.86V95h31.29c17.48,0,30.37,13.8,30.37,32.65s-12.89,32.66-30.37,32.66"/></g></svg>