<svg xmlns="http://www.w3.org/2000/svg" width="27" height="27" viewBox="0 0 27 27"><g><g><g><path fill="#fedc5a" d="M13 4.176C9.501 3.448 5.772 5 3.123 8.428a.594.594 0 0 0 .046.778L5.917 12A27.534 27.534 0 0 1 13 4.176z"/></g><g><path fill="#fedc5a" d="M16 22.087l2.803 2.745c.21.205.543.225.776.045 3.442-2.648 4.992-6.382 4.231-9.877A27.778 27.778 0 0 1 16 22.087z"/></g><g><path fill="#fedc5a" d="M15.42 13.905a2.318 2.318 0 0 1-2.315-2.32 2.318 2.318 0 0 1 2.316-2.321 2.318 2.318 0 0 1 2.315 2.32 2.318 2.318 0 0 1-2.315 2.321zM26.83.175A.564.564 0 0 0 26.39 0C10.503.83 5.09 14.708 5.037 14.849a.579.579 0 0 0 .133.613l6.368 6.368a.579.579 0 0 0 .617.132c.14-.054 13.945-5.535 14.844-21.35a.579.579 0 0 0-.169-.437z"/></g><g><path fill="#fedc5a" d="M6.92 20.945c-1.443-1.26-3.78-1.26-5.222 0C.37 22.106.036 25.986 0 26.425a.5.5 0 0 0 .165.405.66.66 0 0 0 .45.17h.042c.501-.03 4.935-.323 6.262-1.484 1.44-1.263 1.44-3.308 0-4.57z"/></g></g></g></svg>