<svg xmlns="http://www.w3.org/2000/svg" viewBox="0 0 144 36" class="icon"><path d="M18.3 1.65l3.83 3.83-2.53 2.53-3.38-3.38a.756.756 0 0 0-.57-.25h-8.8c-.24 0-.41.08-.57.25L3.95 6.95a.83.83 0 0 0-.24.57v13.74c0 .2.08.41.24.57l2.32 2.32c.16.16.33.24.57.24h6.93c.24 0 .45-.08.57-.24l4.28-4.24c.16-.16.24-.33.24-.57v-3.18h-7.42v-3.59h11.13v10.11l1.06 5.3H20.1l-.77-3.87-3.02 3.02c-.57.57-1.22.86-2 .86H6.24c-.77 0-1.47-.29-2.04-.86L.86 23.79C.29 23.22 0 22.53 0 21.75V7.04C0 6.26.29 5.57.86 5L4.2 1.65M44.88 27.99l-2.16-2.16-1.35 1.35c-.57.53-1.22.82-2 .82H32.6c-.77 0-1.43-.24-2-.82l-1.79-1.79a2.83 2.83 0 0 1-.86-2.08v-3.18c0-.82.29-1.51.86-2.08l1.59-1.59c.57-.57 1.26-.86 2.04-.86h9.42v-2.2c0-.2-.08-.41-.25-.57l-.82-.82a.812.812 0 0 0-.57-.24H32.9c-.24 0-.45.08-.57.24l-1.51 1.51-2.16-2.16 1.96-1.96c.57-.57 1.18-.82 2-.82h8.07c.82 0 1.47.29 2 .82l1.79 1.79c.57.57.86 1.31.86 2.08v10.31c0 .24.12.41.24.57l1.59 1.55-2.29 2.29zm-3.01-9.38H33.1c-.24 0-.45.12-.57.24l-.82.82c-.16.16-.29.37-.29.57v2.93c0 .24.12.41.24.57l.82.82c.16.16.41.24.57.24h5.83c.2 0 .45-.08.57-.24l2.16-2.12c.16-.16.25-.33.25-.61v-3.22h.01zM60.49 27.99h-4.81L49.4 8.58h3.59l5.1 16.31 5.14-16.31h3.51l-6.25 19.41zM86.25 27.99l-2.16-2.16-1.34 1.35c-.57.53-1.22.82-2 .82h-6.77c-.77 0-1.43-.24-2-.82l-1.79-1.79a2.83 2.83 0 0 1-.86-2.08v-3.18c0-.82.29-1.51.86-2.08l1.59-1.59c.57-.57 1.26-.86 2.04-.86h9.42v-2.2c0-.2-.08-.41-.24-.57l-.82-.82a.812.812 0 0 0-.57-.24h-7.34c-.24 0-.45.08-.57.24l-1.51 1.51-2.16-2.16 1.96-1.96c.57-.57 1.18-.82 2-.82h8.07c.82 0 1.47.29 2 .82l1.79 1.79c.57.57.86 1.31.86 2.08v10.31c0 .24.12.41.24.57l1.59 1.55-2.29 2.29zm-3.01-9.38h-8.76c-.25 0-.45.12-.57.24l-.82.82c-.16.16-.28.37-.28.57v2.93c0 .24.12.41.24.57l.82.82c.16.16.41.24.57.24h5.83c.2 0 .45-.08.57-.24L83 22.44c.16-.16.24-.33.24-.61v-3.22zM109.9 11.8v19.24c0 .82-.33 1.55-.86 2.08l-1.79 1.79c-.57.57-1.22.86-2 .86h-8.11c-.82 0-1.43-.28-2-.82l-2.45-2.45 2.2-2.24 2.08 2.08c.16.2.37.29.57.29h7.22c.2 0 .41-.12.57-.25l.82-.82c.16-.16.24-.37.24-.57v-5.83l-1.96 1.96c-.57.57-1.26.86-2 .86h-5.3c-.77 0-1.43-.25-2-.82l-1.79-1.79a2.83 2.83 0 0 1-.86-2.08V13.3c0-.82.29-1.55.86-2.12l1.79-1.79c.57-.57 1.22-.82 2-.82h5.26c.77 0 1.47.29 2.04.82l2.16 2.16.65-2.98h3.3l-.64 3.23zm-3.51 4c0-.2-.08-.41-.24-.57l-3.22-3.22a.812.812 0 0 0-.57-.24h-4.73c-.2 0-.45.08-.57.24l-.82.82c-.16.16-.29.41-.29.65v9.7c0 .24.12.41.25.57l.82.82c.16.16.41.24.57.24h4.73c.25 0 .45-.08.61-.24l3.22-3.22c.16-.16.24-.33.24-.57V15.8zM131.71 27.99l-2.16-2.16-1.34 1.35c-.57.53-1.22.82-2 .82h-6.77c-.77 0-1.43-.24-2-.82l-1.79-1.79a2.83 2.83 0 0 1-.86-2.08v-3.18c0-.82.28-1.51.86-2.08l1.59-1.59c.57-.57 1.26-.86 2.04-.86h9.42v-2.2c0-.2-.08-.41-.25-.57l-.82-.82a.812.812 0 0 0-.57-.24h-7.34c-.24 0-.45.08-.57.24l-1.51 1.51-2.16-2.16 1.96-1.96c.57-.57 1.18-.82 2-.82h8.07c.82 0 1.47.29 2 .82l1.79 1.79c.57.57.86 1.31.86 2.08v10.31c0 .24.12.41.24.57l1.59 1.55-2.28 2.29zm-3.02-9.38h-8.77c-.24 0-.45.12-.57.24l-.82.82c-.16.16-.28.37-.28.57v2.93c0 .24.12.41.24.57l.82.82c.16.16.41.24.57.24h5.83c.2 0 .45-.08.57-.24l2.16-2.12c.16-.16.25-.33.25-.61v-3.22zM143.7.35v4.33h-4.37V.35M139.82 27.99V11.76h-4.16V8.58h7.62v19.41h-3.46z" class="st0"></path></svg>