<svg xmlns="http://www.w3.org/2000/svg" width="30" height="28" viewBox="0 0 30 28"><g><g><g><path fill="#413e65" d="M23.346 8H7.654C7.293 8 7 7.776 7 7.5s.293-.5.654-.5h15.692c.361 0 .654.224.654.5s-.293.5-.654.5zm-6.971 6h-8.75C7.28 14 7 13.776 7 13.5s.28-.5.625-.5h8.75c.345 0 .625.224.625.5s-.28.5-.625.5zM26.739 0H3.261C1.46 0 0 1.492 0 3.333V18c0 .884.344 1.732.955 2.357.612.625 1.441.976 2.306.976H9.47l5.021 6.417a.647.647 0 0 0 1.019 0l5.02-6.417h6.21c1.8 0 3.26-1.492 3.26-3.333V3.333C30 1.493 28.54 0 26.74 0z"/></g></g></g></svg>