<svg xmlns="http://www.w3.org/2000/svg" width="34" height="28" viewBox="0 0 34 28"><g><g><g><path fill="#5454d4" d="M18 28H2.16C.967 28 0 27.01 0 25.79V2.21C0 .99.967 0 2.16 0H18v1.474H2.16c-.398 0-.72.33-.72.737v23.578c0 .407.322.737.72.737H18z"/></g><g><path fill="#5454d4" d="M29.588 8.842h-5.166a.737.737 0 1 1 0-1.474h5.166a.737.737 0 1 1 0 1.474zm0 5.905h-5.166a.74.74 0 0 1-.738-.742c0-.41.33-.742.738-.742h5.166a.74.74 0 0 1 .738.742.74.74 0 0 1-.738.742zm0 5.885h-5.166a.737.737 0 1 1 0-1.474h5.166a.737.737 0 1 1 0 1.474zM31.789 0H20v28h11.79c1.22 0 2.21-.99 2.21-2.21V2.21C34 .99 33.01 0 31.79 0z"/></g></g></g></svg>