<svg xmlns="http://www.w3.org/2000/svg" width="34" height="16" viewBox="0 0 34 16"><g><g><g><path fill="#5454d4" d="M27.348 2.74c-2.419 0-6.45 2.916-10.717 6.003-3.746 2.711-7.994 5.784-9.979 5.784-2.852 0-5.174-2.314-5.174-5.157 0-2.842 2.322-5.156 5.174-5.156.5 0 1.176.19 1.987.536l-1.86 3.39a.737.737 0 1 0 .8 1.074l6.615-1.379a.733.733 0 0 0 .542-.975L12.376.482a.738.738 0 0 0-1.342-.098L9.35 3.457c-1.07-.469-1.977-.717-2.697-.717C2.984 2.74 0 5.714 0 9.37 0 13.026 2.984 16 6.652 16c2.465 0 6.537-2.946 10.848-6.064 3.706-2.682 7.91-5.722 9.848-5.722 2.852 0 5.174 2.314 5.174 5.156 0 2.843-2.322 5.157-5.174 5.157-1.171 0-3.298-1.003-5.99-2.824a.74.74 0 0 0-1.027.196.735.735 0 0 0 .197 1.023C23.546 14.964 25.84 16 27.348 16 31.016 16 34 13.026 34 9.37c0-3.656-2.984-6.63-6.652-6.63z"/></g></g></g></svg>