<svg id="Layer_1" data-name="Layer 1" xmlns="http://www.w3.org/2000/svg" xmlns:xlink="http://www.w3.org/1999/xlink" viewBox="0 0 305 165"><defs><style>.cls-1{fill:none;}.cls-2{fill:#fff;}.cls-3{clip-path:url(#clip-path);}</style><clipPath id="clip-path"><rect class="cls-1" x="0.63" width="304.04" height="164.14"/></clipPath></defs><title>ltu_logo</title><path class="cls-2" d="M97.28,104.75H85.86v-0.49H86.7c1.17,0,1.61-.38,1.61-1.69V91.26c0-1.35-.41-1.92-2-1.92H85.93V88.86h7.54v0.49H92.53c-1.66,0-2.1.18-2.1,1.76v11.78a0.83,0.83,0,0,0,1,.95h3.76c1.51,0,2-.59,3.58-2.81h0.46l-2,3.73"/><path class="cls-2" d="M122.45,88.86v0.49c-1.71,0-2.33.71-2.33,2.35v6.9c0,3.17-2,6.57-7.56,6.57-4.88,0-7.39-2.79-7.39-6.44V91.26c0-1.64-.46-1.89-2.2-1.92V88.86h6.57v0.49h-0.23c-1.41,0-2,.38-2,1.86v7.11c0,3.45,2,5.52,5.83,5.52,2.89,0,5.83-1.2,5.83-5.55v-6c0-2.45-.38-2.89-2.5-3V88.86h6"/><path class="cls-2" d="M138.27,104.75H126.84v-0.49h0.84c1.18,0,1.61-.38,1.61-1.69V91.26c0-1.35-.41-1.92-2-1.92h-0.36V88.86h7.54v0.49h-0.95c-1.66,0-2.1.18-2.1,1.76v11.78a0.83,0.83,0,0,0,1,.95h3.76c1.51,0,2-.59,3.58-2.81h0.46l-2,3.73"/><path class="cls-2" d="M155.36,99h-0.49c-0.2-1.82-.69-2-1.74-2h-4.32v5.44c0,1.18.43,1.41,1.38,1.41h3.94c1.79,0,2.33-.69,3-2.89h0.46l-0.41,3.81H143.58v-0.49h0.71c2,0,2.4-.56,2.4-2.1V91.39c0-1.43-.33-2-2-2h-0.56V88.86h12.27l0.2,3.55H156.1c-0.33-2.17-1-2.63-1.89-2.63h-5.39v6.29h4.57c0.92,0,1.35-.43,1.48-1.92h0.49V99"/><path class="cls-2" d="M170.39,90.62l-2.17,6h4.42l-2.25-6h0Zm-2.61,7.08-1.48,4a7.19,7.19,0,0,0-.51,1.61c0,0.69.67,0.94,2.07,0.94h0.41v0.49h-5.9v-0.49c1.66,0,1.94-.31,2.76-2.53L169.77,89l-0.23-.56h2.22l5.34,14.18a2,2,0,0,0,2.33,1.61v0.49h-7v-0.49h0.67c1.46,0,2-.15,2-0.87a2.85,2.85,0,0,0-.28-1l-1.71-4.65h-5.29"/><path class="cls-2" d="M9.52,131.89c0,1.38.46,1.86,2,1.86h0.95v0.49H4.44v-0.49H5.38c1.56,0,2-.49,2-1.86V119.26H3c-1,0-1.48.59-1.87,2.84H0.63L1,118H1.52a0.38,0.38,0,0,0,.28.31,1.65,1.65,0,0,0,.51.08H14.61A0.7,0.7,0,0,0,15.4,118h0.49l0.41,4.14H15.84c-0.38-2.25-.84-2.84-1.87-2.84H9.52v12.63"/><path class="cls-2" d="M32.54,128.49H32.06c-0.2-1.81-.69-2-1.74-2H26v5.44c0,1.18.43,1.41,1.38,1.41h3.94c1.79,0,2.33-.69,3-2.89h0.46l-0.41,3.81H20.76v-0.49h0.72c2,0,2.4-.56,2.4-2.1V120.87c0-1.43-.33-2-2-2H21.27v-0.48H33.54l0.2,3.55H33.28c-0.33-2.17-1-2.63-1.89-2.63H26v6.29h4.57c0.92,0,1.35-.43,1.48-1.92h0.48v4.86"/><path class="cls-2" d="M50.84,134.24v-0.49c1.18,0,1.66-.23,1.66-0.71s-0.56-1.3-3.14-3.89c-2-2-2.66-2.43-3.78-2.3v4.78c0,1.61.46,2.12,2,2.12H48v0.49H41v-0.49h0.46c1.64,0,2-.56,2-1.86V120.67c0-1.53-.69-1.84-2-1.84H41v-0.48h6.9v0.48H47.62c-1.53,0-2,.49-2,2v5.52a4.6,4.6,0,0,0,2.86-1.64c2-2,3.55-4.29,3.55-5.11,0-.59-0.38-0.79-1.76-0.79v-0.48H57v0.48c-1.82,0-2.61.28-3.37,1s-2.4,4-5.09,6c0.46,0.08.92,0.46,2,1.58,2.68,2.68,4.11,4.68,5,5.52,0.43,0.43,1.1.74,2.84,0.74v0.49H50.84"/><path class="cls-2" d="M78.21,134.42L65,120.57v11c0,1.84.41,2.22,2.58,2.22v0.49H61.63v-0.49h0.1c1.58,0,2.1-.54,2.1-1.71V119.47a3.74,3.74,0,0,0-2.15-.64v-0.48h4l12,12.55V120.72c0-1.56-.46-1.84-2.5-1.89v-0.48h6v0.48c-1.92,0-2.33.33-2.33,1.33v14.26H78.21"/><path class="cls-2" d="M92.58,134.24H86.37v-0.49c1.58-.08,1.92-0.49,1.92-2.2V120.67c0-1.38-.49-1.76-1.92-1.84v-0.48h6.21v0.48c-1.61,0-2.17.36-2.17,2.07v10.84c0,1.51.41,2,2.17,2v0.49"/><path class="cls-2" d="M99.93,130.36a4.43,4.43,0,0,0,4.32,3.6c1.71,0,3.53-1,3.53-3,0-3.68-8.2-4.8-8.2-9.28,0-2.12,1.94-3.71,4.55-3.71,2.15,0,2.58.64,3.48,0.64a0.49,0.49,0,0,0,.46-0.25h0.41l0.43,3.25h-0.43a4.51,4.51,0,0,0-4.11-3c-1.69,0-2.86,1-2.86,2.4,0,3.63,8.2,4.6,8.2,9.3,0,2.5-2.22,4.37-5.21,4.37a20.85,20.85,0,0,1-3.55-.69,0.61,0.61,0,0,0-.51.28H100l-0.54-3.88h0.49"/><path class="cls-2" d="M125.82,134.24v-0.49c1.18,0,1.66-.23,1.66-0.71s-0.56-1.3-3.14-3.89c-2-2-2.66-2.43-3.78-2.3v4.78c0,1.61.46,2.12,2,2.12h0.33v0.49h-7v-0.49h0.46c1.64,0,2-.56,2-1.86V120.67c0-1.53-.69-1.84-2-1.84h-0.46v-0.48h6.9v0.48H122.6c-1.53,0-2,.49-2,2v5.52a4.6,4.6,0,0,0,2.86-1.64c2-2,3.55-4.29,3.55-5.11,0-.59-0.38-0.79-1.76-0.79v-0.48h6.72v0.48c-1.81,0-2.61.28-3.37,1s-2.4,4-5.09,6c0.46,0.08.92,0.46,2,1.58,2.68,2.68,4.11,4.68,5,5.52,0.43,0.43,1.1.74,2.84,0.74v0.49h-7.49"/><path class="cls-2" d="M144.48,120.11l-2.17,6h4.42l-2.25-6h0Zm-2.61,7.08-1.48,4a7.2,7.2,0,0,0-.51,1.61c0,0.69.66,0.94,2.07,0.94h0.41v0.49h-5.9v-0.49c1.66,0,1.94-.31,2.76-2.53l4.65-12.7-0.23-.56h2.22l5.34,14.18a2,2,0,0,0,2.33,1.61v0.49h-7v-0.49h0.66c1.46,0,2-.15,2-0.87a2.86,2.86,0,0,0-.28-1l-1.71-4.65h-5.29"/><path class="cls-2" d="M60.52,147.83v0.48c-1.71,0-2.32.72-2.32,2.35v6.9c0,3.17-2,6.57-7.56,6.57-4.88,0-7.39-2.79-7.39-6.44v-7.46c0-1.64-.46-1.89-2.2-1.92v-0.48h6.57v0.48H47.39c-1.41,0-2,.38-2,1.86v7.11c0,3.45,2,5.52,5.83,5.52,2.89,0,5.83-1.2,5.83-5.55v-6c0-2.45-.38-2.89-2.5-3v-0.48h6"/><path class="cls-2" d="M82.27,163.91L69,150.05v11c0,1.84.41,2.22,2.58,2.22v0.49H65.69v-0.49h0.1c1.58,0,2.1-.54,2.1-1.71V149a3.74,3.74,0,0,0-2.15-.64v-0.48h4l12,12.55V150.21c0-1.56-.46-1.84-2.5-1.89v-0.48h6v0.48c-1.92,0-2.33.33-2.33,1.33v14.26H82.27"/><path class="cls-2" d="M98.17,163.73H92v-0.49c1.58-.08,1.92-0.48,1.92-2.2V150.16c0-1.38-.48-1.76-1.92-1.84v-0.48h6.21v0.48c-1.61,0-2.17.36-2.17,2.07v10.84c0,1.51.41,2,2.17,2v0.49"/><path class="cls-2" d="M112.07,164.14l-5.55-13.83c-0.64-1.61-.95-2-2.5-2v-0.48h7v0.48c-2.35,0-2.91.59-2.43,1.76l4.6,11.45,4-10.55a5,5,0,0,0,.43-1.59c0-.77-0.64-1.07-2.38-1.07v-0.48h5.93v0.48c-1.33,0-2,.61-2.63,2.2l-5.27,13.62h-1.28"/><g class="cls-3"><path class="cls-2" d="M136.93,158h-0.49c-0.2-1.81-.69-2-1.74-2h-4.32v5.44c0,1.18.43,1.4,1.38,1.4h3.94c1.79,0,2.33-.69,3-2.89h0.46l-0.41,3.81H125.15v-0.49h0.72c2,0,2.4-.56,2.4-2.1V150.36c0-1.43-.33-2-2-2h-0.56v-0.48h12.27l0.2,3.55h-0.46c-0.33-2.17-1-2.63-1.89-2.63h-5.39V155H135c0.92,0,1.36-.43,1.48-1.92h0.49V158"/><path class="cls-2" d="M149.94,156.52a11.22,11.22,0,0,0,1.59.05c2.84,0,4.7-1.2,4.7-4.27,0-2.38-1.08-4.22-5-4.22a10.48,10.48,0,0,0-1.28.05v8.38h0Zm0,4.81c0,1.53.61,1.92,2,1.92h0.59v0.49h-7.23v-0.49h0.43c1.51,0,2-.41,2-2.12V150.36c0-1.59-.43-2-1.92-2h-0.56v-0.48c0.61,0,2.17-.1,3.22-0.15s1.56-.08,3.22-0.08c4.73,0,6.85,1.94,6.85,4.55a4.36,4.36,0,0,1-3.4,4.14,30.48,30.48,0,0,1,2.91,2.66l2,2a7.68,7.68,0,0,0,5,2.58V164c-4.47.2-5.62-.77-7.9-3l-1.69-1.69A19,19,0,0,0,153,157c-0.64,0-1,.05-1.74.05s-0.89,0-1.3-.05v4.32"/></g><path class="cls-2" d="M168,159.84a4.43,4.43,0,0,0,4.32,3.6c1.71,0,3.53-1,3.53-3,0-3.68-8.2-4.8-8.2-9.28,0-2.12,1.94-3.71,4.55-3.71,2.14,0,2.58.64,3.47,0.64a0.49,0.49,0,0,0,.46-0.25h0.41l0.43,3.24h-0.43a4.52,4.52,0,0,0-4.12-3c-1.69,0-2.86,1-2.86,2.4,0,3.63,8.21,4.6,8.21,9.3,0,2.5-2.22,4.37-5.21,4.37a20.89,20.89,0,0,1-3.55-.69,0.62,0.62,0,0,0-.51.28H168l-0.54-3.89H168"/><path class="cls-2" d="M190.85,163.73h-6.21v-0.49c1.59-.08,1.92-0.48,1.92-2.2V150.16c0-1.38-.48-1.76-1.92-1.84v-0.48h6.21v0.48c-1.61,0-2.17.36-2.17,2.07v10.84c0,1.51.41,2,2.17,2v0.49"/><path class="cls-2" d="M205.29,161.38c0,1.38.46,1.87,2,1.87h0.95v0.49h-8v-0.49h0.94c1.56,0,2-.48,2-1.87V148.75h-4.45c-1,0-1.48.59-1.87,2.84h-0.46l0.41-4.14h0.48a0.38,0.38,0,0,0,.28.31,1.61,1.61,0,0,0,.51.08h12.29a0.7,0.7,0,0,0,.79-0.38h0.49l0.41,4.14H211.6c-0.38-2.25-.84-2.84-1.87-2.84h-4.45v12.63"/><path class="cls-2" d="M227.79,158h-0.49c-0.2-1.81-.69-2-1.74-2h-4.32v5.44c0,1.18.43,1.4,1.38,1.4h3.93c1.79,0,2.33-.69,3-2.89H230l-0.41,3.81H216v-0.49h0.71c2,0,2.4-.56,2.4-2.1V150.36c0-1.43-.33-2-2-2h-0.56v-0.48h12.27l0.21,3.55h-0.46c-0.33-2.17-1-2.63-1.89-2.63h-5.39V155h4.57c0.92,0,1.35-.43,1.48-1.92h0.49V158"/><g class="cls-3"><path class="cls-2" d="M243.38,161.38c0,1.38.46,1.87,2,1.87h0.95v0.49h-8v-0.49h0.94c1.56,0,2-.48,2-1.87V148.75h-4.45c-1,0-1.48.59-1.87,2.84h-0.46l0.41-4.14h0.49a0.38,0.38,0,0,0,.28.31,1.61,1.61,0,0,0,.51.08h12.29a0.7,0.7,0,0,0,.79-0.38h0.49l0.41,4.14H249.7c-0.38-2.25-.84-2.84-1.87-2.84h-4.45v12.63"/><path class="cls-2" d="M304.72,88.59C291.45,102.53,287.39,120.78,294,132c0,0-34.14,15.45-66.44,1.37-34-14.83-61.94,5.86-61.94,5.86l0-8.34c28.71-6.45,24.29-15.29,25-46.32V39.81c0-31.24-.52-31.47-24.6-33.19V0s13.75,0,36.75,0,35.32,0,35.32,0V6.61c-24.65,1.72-25.17,2-25.17,33.19,0,0-.13,23.47,0,45.45s0.43,30.55,11.78,39.36c8.2,6.37,17.11,7.92,25.82,8s22.27-4,29.13-11.34A42.66,42.66,0,0,0,288.72,107,178.67,178.67,0,0,0,296,87.54l7,0.8,1.75,0.25"/></g><path class="cls-2" d="M169,84.68A1.71,1.71,0,1,0,170.7,83,1.71,1.71,0,0,0,169,84.68h0Zm4.15,0a2.44,2.44,0,1,1-2.44-2.44,2.45,2.45,0,0,1,2.44,2.44"/></svg>