<svg width="255" height="74" version="1.1" xmlns="http://www.w3.org/2000/svg" x="0" y="0" viewBox="0 0 255 74" xml:space="preserve"><path fill="#50dc82" d="M10.8 0L0 74h244.2L255 0z"/><path d="M43.2 61.6l29.3-49.7H58.3L41.4 42.1l-7.3-30.2H20l13.1 49.7h10.1zM85 27.8H72.9l-5.4 33.8h12.1L85 27.8zm1.5-9.5c.6-3.5-1.8-6.3-5.3-6.3s-6.9 2.9-7.4 6.3c-.5 3.5 1.9 6.3 5.4 6.3 3.4.1 6.8-2.8 7.3-6.3m62.2 21.8c1.2-7.8-.9-13.4-9.5-13.4-4.6 0-9.6 2.2-12.6 6.5-1.7-4.5-5.6-6.5-10.5-6.5-4.4 0-8.2 1.6-11.6 5.3h-.1l.7-4.2H92.9l-5.4 33.8h12.1l2.6-16.2c.6-3.7 1.5-9.5 6.9-9.5s4.4 5.7 3.8 9.5l-2.6 16.2h12.1l2.6-16.2c.6-4 1.7-9.2 7.2-9.2 5.1 0 4 5.7 3.5 9.2l-2.6 16.2h12.1l3.5-21.5zm15.2 21.5l8.7-54.7h-12.1l-8.7 54.7h12.1zm36.2-16.8c-.7 4.3-4.1 7.6-9 7.6s-7.2-3.3-6.5-7.6c.7-4.1 4.1-7.6 9-7.6 4.9-.1 7.2 3.4 6.5 7.6m9 16.8l5.4-33.8h-12.1l-.5 3.3c-2.1-3-5.9-4.4-9.8-4.4-10.1 0-18.4 8.3-19.9 18-1.6 9.7 4.2 18.1 14.3 18.1 4 0 8.4-1.5 11.1-4.9h.1l-.6 3.8h12zm17.7-14.1c-4.3 0-8.3 3.4-9 7.7-.7 4.2 2.3 7.7 6.6 7.7s8.3-3.5 9-7.7c.6-4.2-2.3-7.7-6.6-7.7m12-35.6h-12.5L221 44.8h12.5l5.3-32.9z" fill="#fff"/></svg>